# xmcd
#
# Track frame offsets:
#	150
#	16235
#	34182
#	68988
#	108743
#	141599
#
# Disc length: 2324 seconds
#
# Revision: 3
# Processed by: cddbd v1.5.2PL0 Copyright (c) Steve Scherf et al.
# Submitted via: EasyCDDAExtractor 10.2.0.1
#
DISCID=56091206
DTITLE=Pearls - When Winter calls... CDM
DYEAR=1999
DGENRE=Trance
TTITLE0=When Winter calls... (Radio Mix)
TTITLE1=When Winter calls... (Ayla Radio Edit)
TTITLE2=When Winter calls... (Martin Eyerer Mix)
TTITLE3=When Winter calls... (Ercolino meets Laib Mix)
TTITLE4=When Winter calls... (Ayla Club Mix)
TTITLE5=When Winter calls... (Extended)
EXTD=
EXTT0=
EXTT1=
EXTT2=
EXTT3=
EXTT4=
EXTT5=
PLAYORDER=
